<?xml version="1.0" standalone="no"?>
<!DOCTYPE svg PUBLIC "-//W3C//DTD SVG 20010904//EN"
 "http://www.w3.org/TR/2001/REC-SVG-20010904/DTD/svg10.dtd">
<svg version="1.0" xmlns="http://www.w3.org/2000/svg"
 viewBox="0 0 512.000000 512.000000"
 preserveAspectRatio="xMidYMid meet">

<g transform="translate(0.000000,512.000000) scale(0.100000,-0.100000)" stroke="none">
<path d="M2523 4883 c-67 -95 -2513 -3833 -2513 -3840 0 -8 2518 -766 2544
-766 24 0 2566 767 2566 775 0 7 -2553 3834 -2570 3851 -4 5 -16 -4 -27 -20z
m-418 -2995 c246 -678 449 -1234 450 -1236 1 -1 192 521 425 1160 232 640 425
1169 427 1176 4 9 -111 12 -556 12 l-561 0 0 60 0 60 650 0 649 0 -28 -77
c-16 -43 -246 -676 -511 -1408 -266 -731 -486 -1333 -490 -1338 -5 -6 -1030
2794 -1030 2816 0 4 29 7 64 7 l63 0 448 -1232z"/>
</g>
</svg>
